<svg version="1" xmlns="http://www.w3.org/2000/svg" width="1388" height="1388" viewBox="0 0 1041.000000 1041.000000"><path d="M294 1.2c0 .7 4.5 29.7 10 64.3l10 63-6.3 5.5c-38 33.5-62.5 66.7-81.2 110.5-14.9 35-32.8 95.3-42.5 143.3-3.2 16.2-4.2 19.7-6 20.9-41.5 29-84 93.5-105.5 159.8-6.3 19.4-8.8 32.7-8.9 46-.1 11.5.1 12.3 3.3 19.5 10.5 23.5 22.4 32 39.3 28 6.8-1.7 20.5-7.4 23.1-9.7 9.6-8.6 12.6-28.8 6.3-41.8-3.2-6.4-8.7-11-15.4-12.8-4.3-1.1-4.3-1.2-3.7-4.7 1-5.8 9-21.1 14.9-28.1 6.1-7.5 14.5-14.1 26.8-21.2l8.3-4.8.6 37.3c.8 47.2 3.1 76.2 9.6 122.5l2.7 19.3h260.4l1.7-7.8c.9-4.2 3.6-11.8 6-16.7 8-16.8 7.4-19.2 7.4 34.5s.6 51.2-7.4 34.5c-2.4-5-4.9-11.8-5.6-15.3l-1.3-6.2H312.3c-110.7 0-128.3.2-128.3 1.4 0 2.5 4.9 26.1 9.5 45.8 18 77.1 48.3 162.8 86 243.2l4.6 10 4.8-10c2.6-5.4 15.2-32.4 28.1-59.8 21.7-46.1 23.9-50.3 28.6-55 2.9-2.9 7.6-6.4 10.5-7.9 11.4-5.7 19.6-5.8 63.4-.7 48.8 5.7 59.5 6.4 100 6.4 40.2.1 48.6-.4 93.5-5.5 14.6-1.6 32.1-3.5 38.8-4.1 21.5-1.8 31.7 1 42.6 11.7 4.8 4.7 6.9 8.9 33.1 64.3 15.3 32.6 28.2 59.2 28.6 59.2.7 0 12-24.2 22.1-47.5 34.8-80.1 61.4-164.2 77.1-244.2.8-4 1.3-7.4 1.1-7.5-.1-.2-57.9-.1-128.4.2l-128.2.5-1.8 7c-2.1 8.1-5.7 16.7-9.4 22.2l-2.6 3.8V728c.1-42.6.2-46.3 1.6-44.5 3.2 3.9 9.4 18.1 11 25 .9 3.8 1.8 7.6 2 8.3.3.9 27.2 1.2 130.3 1.2h130l.5-3.3c.3-1.7 1-5.9 1.6-9.2 1.9-11.4 6-47.1 7.5-65 2-24.6 3.8-72 3.3-87.6-.3-9 0-12.9.7-12.9 2.1 0 18.4 10.3 24.9 15.7 3.6 2.9 8.6 8.1 11.2 11.6 5.2 6.9 12 20.3 12.9 25.7.6 3.5.6 3.6-3.7 4.7-15.2 4.1-22.7 22.2-16.9 41 3.6 12.1 10.3 17.3 29.5 22.8 17.5 5.1 30.2-3.6 40.6-27.5 5.8-13.3 5-28.8-2.6-55.5-12.9-44.7-35.4-89.2-63.4-125.4-12.1-15.6-32.1-35.4-44.9-44.3-1.6-1.1-2.6-4.3-4.6-14.9-8.9-45.6-24.9-101.6-40.2-140.4-11.5-29.2-28.6-58.6-47-81-8.5-10.3-27.4-29.5-39-39.5l-5.1-4.5 9.9-62c5.4-34.1 9.8-62.9 9.6-63.9-.1-1.5-10.6 7.6-42.2 36.4-23.1 21-44.1 40.3-46.8 42.9l-4.7 4.6-12.3-4.2c-75.8-26.2-161.6-26.5-236.5-.8-7.3 2.5-13.7 4.5-14.3 4.5-.5 0-22.1-19.4-48-43C315.1 19.3 294 .5 294 1.2zm50.7 285l15.3 5.3v5.3c0 13.4 12.3 22.4 24.5 17.8 4-1.6 9.7-6.6 10.7-9.6.4-1.4 36.8 10.8 36.8 12.3 0 .4-1.8 3.5-4.1 6.8-9 13.3-22.5 24.2-34.7 27.9-12.8 4-29 2.2-42.7-4.8-22.7-11.4-53.2-40.3-78.6-74.4-4.9-6.5-9.3-12.7-9.8-13.7-.7-1.3 7.5 1.2 33.2 10.1 18.8 6.5 41.1 14.2 49.4 17zM778 258.8c0 1.4-19.8 27.2-28.5 37.1-15.8 18.1-33.3 34.2-47.6 43.9-15.4 10.3-26.3 14.2-39.9 14.2-15.5 0-27.6-5.5-40-18.1-5.8-5.9-14-16.8-14-18.6 0-1.5 36.4-13.6 36.8-12.3.9 2.7 5.9 7.4 9.7 9.1 12.1 5.6 25.5-3.4 25.5-17v-5.6l48.3-16.7c26.5-9.2 48.5-16.7 49-16.8.4 0 .7.4.7.8zm-224.8 84.8c58.2 8.1 103 37.5 111.4 73 2.1 8.8 1.4 21.5-1.6 30.2-4.4 12.5-15.8 26.6-30.5 37.7-8.1 6.2-29.7 16.7-42.5 20.9-50 16.2-111.3 13.7-156.2-6.4-16.9-7.5-27-14.2-38.4-25.5-8.6-8.5-10.7-11.4-14.6-19.1-5.4-10.7-7.4-20.3-6.4-30.6 3.8-41.6 56.7-75.9 126.1-81.8 13.3-1.1 38.8-.4 52.7 1.6zM541 650c11 3.1 21.2 8 20.7 9.9-1.6 6.2-41.2 133.9-41.5 133.7-.1-.2-9.7-30.4-21.1-67.2-20.4-65.2-20.9-66.9-19-68.4 3.4-2.7 18.1-8.1 25.9-9.5 9.7-1.9 25.1-1.2 35 1.5zm-51.5 91c11.3 36.5 20.3 66.5 20.1 66.7-.2.2-3.7-.4-7.7-1.3-8.7-1.9-22.1-7.9-29-13l-4.9-3.6v-58.1c0-31.9.2-57.8.5-57.5.3.2 9.7 30.3 21 66.8zm82.5-8.5V790l-4.7 3.5c-7.3 5.2-18.6 10.5-27.9 12.8-4.6 1.1-8.6 1.8-8.9 1.5-.3-.2 8.5-29.7 19.5-65.4 22.7-73.4 20.8-67.4 21.5-67.4.3 0 .5 25.9.5 57.5z"/><path d="M459.5 406.9c-10.7 2.7-17.5 11.4-17.5 22.3.1 6.9 2.7 12.5 8 17 14.6 12.5 37 2.1 37-17.2 0-11.7-8.3-21-20-22.3-2.5-.3-5.8-.2-7.5.2zM570.5 406.9c-10.7 2.7-17.5 11.4-17.5 22.3.1 19.2 22.5 29.5 37 17.1 15.2-13 7.8-37.3-12-39.6-2.5-.3-5.8-.2-7.5.2z"/></svg>